<svg
                  xmlns="http://www.w3.org/2000/svg"
                  width="14"
                  height="14"
                  viewBox="0 0 14 14"
                  fill="none"
                >
                  <path
                    fill-rule="evenodd"
                    clip-rule="evenodd"
                    d="M6.64187 0.706214C6.85252 0.542377 7.14749 0.542377 7.35814 0.706214L12.6081 4.78955C12.7502 4.90006 12.8333 5.06999 12.8333 5.25V11.6667C12.8333 12.1308 12.649 12.5759 12.3208 12.9041C11.9926 13.2323 11.5475 13.4167 11.0833 13.4167H2.91667C2.45254 13.4167 2.00742 13.2323 1.67923 12.9041C1.35105 12.5759 1.16667 12.1308 1.16667 11.6667V5.25C1.16667 5.06999 1.24978 4.90006 1.39187 4.78955L6.64187 0.706214ZM2.33334 5.5353V11.6667C2.33334 11.8214 2.3948 11.9698 2.50419 12.0791C2.61359 12.1885 2.76196 12.25 2.91667 12.25H11.0833C11.238 12.25 11.3864 12.1885 11.4958 12.0791C11.6052 11.9698 11.6667 11.8214 11.6667 11.6667V5.5353L7.00001 1.90567L2.33334 5.5353Z"
                    fill="white"
                  />
                  <path
                    fill-rule="evenodd"
                    clip-rule="evenodd"
                    d="M4.66667 7C4.66667 6.67784 4.92784 6.41667 5.25001 6.41667H8.75001C9.07217 6.41667 9.33334 6.67784 9.33334 7V12.8333C9.33334 13.1555 9.07217 13.4167 8.75001 13.4167C8.42784 13.4167 8.16667 13.1555 8.16667 12.8333V7.58334H5.83334V12.8333C5.83334 13.1555 5.57217 13.4167 5.25001 13.4167C4.92784 13.4167 4.66667 13.1555 4.66667 12.8333V7Z"
                    fill="white"
                  />
                </svg>